<?xml version="1.0" standalone="no"?>
<!DOCTYPE svg PUBLIC "-//W3C//DTD SVG 20010904//EN"
 "http://www.w3.org/TR/2001/REC-SVG-20010904/DTD/svg10.dtd">
<svg version="1.0" xmlns="http://www.w3.org/2000/svg"
 width="2172.000000pt" height="1252.000000pt" viewBox="0 0 2172.000000 1252.000000"
 preserveAspectRatio="xMidYMid meet">
<metadata>
Created by potrace 1.16, written by Peter Selinger 2001-2019
</metadata>
<g transform="translate(0.000000,1252.000000) scale(0.100000,-0.100000)"
fill="#000000" stroke="none">
<path d="M6198 4343 c-14 -9 -31 -28 -38 -41 -9 -21 -7 -29 15 -57 46 -62 38
-71 -68 -79 -52 -4 -118 -13 -148 -21 -30 -8 -68 -15 -86 -15 -75 0 -132 -21
-182 -66 -47 -42 -124 -81 -255 -129 -55 -20 -96 -57 -96 -87 0 -26 53 -78 80
-78 52 0 292 107 348 156 34 29 51 35 104 40 35 3 85 12 112 20 26 7 103 17
170 20 88 5 131 12 158 25 95 48 144 126 118 189 -16 39 -71 87 -134 116 -60
28 -63 28 -98 7z"/>
<path d="M15681 3930 c-62 -13 -129 -39 -176 -69 -38 -24 -49 -26 -240 -32
-251 -8 -425 -27 -452 -49 -53 -42 -49 -84 10 -120 36 -22 84 -25 172 -10 33
6 157 14 275 19 233 8 213 4 350 77 45 24 200 24 310 0 41 -9 112 -16 158 -16
79 0 85 2 113 29 35 36 37 60 5 94 -28 30 -41 34 -151 41 -44 3 -111 12 -150
20 -100 21 -174 26 -224 16z"/>
<path d="M6341 3661 c-17 -16 -31 -38 -31 -49 0 -27 44 -68 96 -88 36 -14 44
-21 44 -42 l0 -25 -207 5 c-204 6 -211 5 -333 -24 -93 -21 -167 -31 -291 -38
-155 -8 -174 -11 -244 -41 -63 -26 -80 -37 -90 -63 -11 -26 -11 -35 3 -58 28
-48 54 -55 125 -29 49 17 101 24 223 31 106 6 196 17 269 34 107 24 123 25
520 28 394 3 611 -6 824 -32 247 -31 317 -42 327 -53 7 -7 19 -50 28 -97 23
-118 64 -197 131 -256 35 -29 55 -55 55 -68 0 -37 -81 -71 -235 -101 -76 -15
-156 -34 -179 -42 -23 -8 -65 -18 -95 -23 -33 -6 -80 -25 -121 -50 -37 -22
-107 -53 -156 -69 -49 -16 -112 -41 -140 -55 -28 -14 -98 -42 -155 -62 -57
-20 -157 -58 -222 -85 -65 -26 -146 -53 -180 -59 -207 -35 -334 -64 -353 -79
-12 -9 -27 -27 -34 -40 -10 -20 -9 -27 7 -50 30 -40 61 -51 110 -41 22 5 110
21 194 35 122 21 177 36 264 72 61 24 171 66 245 92 74 27 159 60 188 75 30
15 84 36 120 47 37 12 103 40 147 63 44 24 98 46 120 50 22 4 67 16 100 26 33
11 119 31 190 44 117 22 140 31 230 80 l100 56 105 0 c58 0 164 7 235 15 72 9
166 20 211 25 44 6 151 10 238 10 l158 0 29 29 c37 38 37 55 -5 97 l-34 34
-158 0 c-87 0 -194 -4 -238 -10 -261 -31 -350 -40 -415 -40 l-73 0 -93 87
c-104 96 -118 119 -140 245 -22 130 -82 196 -195 218 -91 18 -469 60 -545 61
-124 1 -241 22 -267 48 -48 48 -313 191 -354 191 -12 0 -36 -13 -53 -29z"/>
<path d="M12780 3429 c-63 -17 -292 -38 -416 -39 -71 0 -139 -5 -165 -13 -25
-8 -90 -43 -144 -79 -65 -42 -125 -72 -170 -86 -38 -11 -101 -30 -140 -42 -97
-28 -111 -37 -131 -84 -10 -22 -37 -70 -61 -105 -24 -35 -53 -83 -64 -106 -16
-35 -31 -48 -77 -70 -31 -15 -75 -37 -97 -48 -21 -11 -100 -33 -174 -48 -123
-25 -138 -30 -164 -59 -30 -33 -30 -58 1 -92 26 -30 73 -31 203 -4 165 35 339
116 405 190 24 26 44 54 44 61 0 11 92 159 119 191 11 13 67 34 161 60 75 20
123 44 237 118 l82 53 198 6 c288 8 444 37 488 89 20 24 22 33 14 57 -19 55
-68 71 -149 50z"/>
<path d="M13581 2942 c-37 -36 -39 -63 -8 -93 34 -32 56 -38 209 -49 79 -6
177 -15 218 -20 41 -5 174 -14 295 -20 257 -11 427 -27 496 -44 56 -15 80 -7
113 37 19 26 19 30 6 55 -37 67 -181 97 -515 107 -115 3 -244 10 -285 15 -183
23 -253 30 -372 36 l-127 7 -30 -31z"/>
<path d="M12229 2241 c-16 -16 -29 -38 -29 -49 0 -25 57 -81 90 -88 106 -22
261 -61 343 -85 83 -26 218 -59 307 -76 116 -22 212 -45 250 -58 25 -9 86 -27
135 -40 135 -35 175 -50 235 -84 64 -36 111 -59 199 -96 35 -15 98 -51 140
-79 42 -29 96 -62 121 -74 142 -67 233 -106 300 -129 41 -13 111 -42 155 -63
83 -40 128 -56 230 -85 161 -45 252 -86 317 -141 34 -30 79 -63 99 -74 35 -18
36 -18 66 0 34 20 48 49 38 79 -9 31 -160 168 -207 189 -80 36 -203 80 -313
112 -60 18 -148 52 -195 76 -47 23 -101 46 -120 49 -49 10 -362 152 -368 167
-2 4 -10 8 -18 8 -8 0 -14 5 -14 10 0 6 -5 10 -10 10 -6 0 -20 9 -32 19 -21
20 -127 74 -189 96 -20 7 -72 33 -116 58 -73 42 -244 107 -280 107 -8 0 -63
15 -121 34 -59 19 -154 44 -212 56 -151 30 -318 70 -349 82 -32 12 -388 98
-408 98 -8 0 -28 -13 -44 -29z"/>
<path d="M53 1547 l-53 -10 0 -88 0 -89 52 20 c82 32 99 42 114 72 13 26 13
32 -2 57 -24 40 -49 49 -111 38z"/>
</g>
</svg>
